<svg width="62" height="62" viewBox="0 0 62 62" fill="none" xmlns="http://www.w3.org/2000/svg">
<g filter="url(#filter0_d_1_353)">
<rect x="6" y="2" width="50" height="50" rx="11.1111" fill="#FC9340"/>
<path d="M47.9271 25.0903C44.8839 25.0903 41.6481 27.6061 41.6481 32.2662C41.6481 34.6313 42.5521 36.3201 43.4263 37.9547C44.3566 39.6944 45.2361 41.3377 45.2361 43.9271C45.2361 48.1528 43.1828 50.2061 38.9571 50.2061H37.9556C39.1235 49.0651 39.8541 47.4788 39.8541 45.7211V42.1331C39.8541 37.5238 37.1894 35.1832 35.2448 33.4751C34.8681 33.144 34.5142 32.8339 34.2093 32.5291C33.7625 32.0823 33.1634 31.5462 32.51 30.9628C30.8947 29.5227 28.1932 27.1121 28.1932 25.9873V17.0174C28.1932 14.4315 26.2468 13.1999 25.3393 12.7672C24.9626 11.6687 23.752 8.94446 21.0173 8.94446C20.5215 8.94446 20.1203 9.34567 20.1203 9.84148C20.1203 11.2308 19.5037 12.5324 19.2233 12.5324C17.9286 12.5324 17.1543 13.694 16.5323 14.6296C16.3028 14.9729 16.0855 15.2988 15.8981 15.4863C15.6774 15.707 15.3533 15.9295 15.0187 16.166C14.0463 16.8546 12.9443 17.6359 12.9443 18.8114C12.9443 22.0788 16.7951 23.2963 19.2233 23.2963C19.7612 23.2963 19.9258 23.3366 19.9468 23.3366C19.9468 23.3366 19.9468 23.3366 19.9486 23.3366C20.1221 23.5889 20.1221 24.9028 20.1203 26.4235V26.8842C20.1203 27.3222 19.9626 27.6043 19.6333 28.1526C19.0813 29.0724 18.3263 30.3303 18.3263 33.1631C18.3263 35.0534 19.7015 37.9284 20.1202 38.7606V46.6181H19.2232C17.7393 46.6181 16.5322 47.8251 16.5322 49.309V51.103C16.5323 51.5988 16.9335 52 17.4293 52H38.9571C44.1639 52 47.03 49.1339 47.03 43.9271C47.03 40.8892 45.9561 38.8798 45.0083 37.1086C44.1673 35.5371 43.442 34.1811 43.442 32.2663C43.442 28.3174 46.1243 26.8843 47.927 26.8843C48.4228 26.8843 48.824 26.4831 48.824 25.9873C48.824 25.4915 48.4228 25.0903 47.9271 25.0903Z" fill="white"/>
</g>
<defs>
<filter id="filter0_d_1_353" x="0.444444" y="0.888889" width="61.1111" height="61.1111" filterUnits="userSpaceOnUse" color-interpolation-filters="sRGB">
<feFlood flood-opacity="0" result="BackgroundImageFix"/>
<feColorMatrix in="SourceAlpha" type="matrix" values="0 0 0 0 0 0 0 0 0 0 0 0 0 0 0 0 0 0 127 0" result="hardAlpha"/>
<feOffset dy="4.44444"/>
<feGaussianBlur stdDeviation="2.77778"/>
<feColorMatrix type="matrix" values="0 0 0 0 0 0 0 0 0 0 0 0 0 0 0 0 0 0 0.1 0"/>
<feBlend mode="normal" in2="BackgroundImageFix" result="effect1_dropShadow_1_353"/>
<feBlend mode="normal" in="SourceGraphic" in2="effect1_dropShadow_1_353" result="shape"/>
</filter>
</defs>
</svg>
